<?xml version="1.0" encoding="iso-8859-1"?>
<!-- Generator: Adobe Illustrator 19.0.0, SVG Export Plug-In . SVG Version: 6.00 Build 0)  -->
<svg version="1.1" id="Capa_1" xmlns="http://www.w3.org/2000/svg" xmlns:xlink="http://www.w3.org/1999/xlink" x="0px" y="0px"
	 viewBox="0 0 490 490" style="enable-background:new 0 0 490 490;" xml:space="preserve">
<g>
	<g>
		<g>
			<g>
				<path d="M446.15,335.2H43.95c-16.3,0-29.9-13.2-29.9-29.9l0,0c0-16.3,13.2-29.9,29.9-29.9h402.1c16.3,0,29.9,13.2,29.9,29.9l0,0
					C476.05,322,462.45,335.2,446.15,335.2z"/>
				<path d="M416.55,490h-343c-26.1,0-47.4-21.4-47.4-47.4v-22.2h437.5v22.2C463.95,468.6,442.65,490,416.55,490z"/>
				<path d="M371.05,136.1V73.5h64.6c5.1,0,8.9-3.9,8.9-8.9V8.9c0-5.1-3.9-8.9-8.9-8.9h-74.3l0,0l0,0c-5.4,0-9.7,4.7-9.7,10.1v118.6
					c-31.5-10.1-67.7-15.9-106.6-15.9c-120.9,0-218.9,56.4-218.9,125.6h437.5C463.95,196.4,427.05,158.7,371.05,136.1z
					 M105.45,199.9c0,5.1-3.9,8.9-8.9,9.3c-0.4,0-0.4,0-0.8,0c-5.1,0-9.3-3.9-9.7-8.9c-0.4-4.7,1.2-8.9,4.3-12.4
					c3.5-3.9,9.7-4.3,14-0.8C107.75,190.2,108.15,196,105.45,199.9z M204.95,158.3l-12.4,1.9c-0.4,0-0.8,0-1.6,0
					c-4.7,0-8.9-3.5-9.7-8.6c-0.8-5.4,3.1-10.1,8.2-10.9l12.4-1.9c5.4-0.8,10.1,3.1,10.9,8.2
					C213.95,152.4,210.45,157.5,204.95,158.3z M241.15,207.7c-0.4,0-0.4,0-0.8,0l-12.4-0.8c-5.4-0.4-9.3-5.1-8.9-10.5
					c0.4-5.4,5.1-9.3,10.5-8.9l12.4,0.8c5.4,0.4,9.3,5.1,8.9,10.5C250.45,203.8,246.25,207.7,241.15,207.7z M347.75,168.8
					c-5,7.4-11.7,4.7-13.2,3.9l-17.9-10.1c-4.7-2.7-6.2-8.6-3.9-13.2c2.7-4.7,8.6-6.2,13.2-3.9l17.9,10.1
					C348.45,158.3,350.05,164.1,347.75,168.8z M398.25,204.2c-6.3,5.6-11.7,2.3-13.6,0.4l-7.4-6.2c-3.9-3.5-4.3-9.7-0.4-14
					c3.5-3.9,9.7-4.3,14-0.4l7,6.6C401.35,194.1,401.75,200.3,398.25,204.2z"/>
			</g>
		</g>
		<g>
			<path d="M362.45,401.4c-14.1,0-27.3-5.5-37.2-15.4c-11.9-11.9-31.1-11.9-43,0c-9.9,9.9-23.2,15.4-37.2,15.4
				c-14.1,0-27.3-5.5-37.2-15.4c-11.9-11.9-31.1-11.9-43,0c-9.9,9.9-23.2,15.4-37.2,15.4c-14.1,0-27.3-5.5-37.2-15.4
				c-11.9-11.9-31.1-11.9-43,0c-4.3,4.3-11.4,4.3-15.7,0s-4.3-11.4,0-15.7c20.5-20.5,53.9-20.5,74.4,0c5.7,5.7,13.4,8.9,21.5,8.9
				s15.8-3.2,21.5-8.9c20.5-20.5,53.9-20.5,74.4,0c5.7,5.7,13.4,8.9,21.5,8.9s15.8-3.2,21.5-8.9c20.5-20.5,53.9-20.5,74.4,0
				c5.7,5.7,13.4,8.9,21.5,8.9s15.8-3.2,21.5-8.9c20.5-20.5,53.9-20.5,74.4,0c4.3,4.3,4.3,11.4,0,15.7c-4.3,4.3-11.4,4.3-15.7,0
				c-11.9-11.9-31.1-11.9-43,0C389.75,395.9,376.55,401.4,362.45,401.4z"/>
		</g>
	</g>
</g>
<g>
</g>
<g>
</g>
<g>
</g>
<g>
</g>
<g>
</g>
<g>
</g>
<g>
</g>
<g>
</g>
<g>
</g>
<g>
</g>
<g>
</g>
<g>
</g>
<g>
</g>
<g>
</g>
<g>
</g>
</svg>
